<svg id="Layer_1" data-name="Layer 1" xmlns="http://www.w3.org/2000/svg" viewBox="0 0 239 277.62"><defs><style>.cls-1{fill:#374848;}.cls-2{fill:#73b5ad;}.cls-3{fill:#d2eae8;}.cls-4{fill:none;stroke:#fff;stroke-miterlimit:10;stroke-width:6px;}</style></defs><g id="attendance_icon" data-name="attendance icon"><circle id="Ellipse_22" data-name="Ellipse 22" class="cls-1" cx="72.33" cy="43.88" r="17.16"/><path id="Path_33" data-name="Path 33" class="cls-1" d="M331.81,356.72c.39-32.75,51.08-38.6,51.86,1.95H331.81Z" transform="translate(-285.93 -268.67)"/><circle id="Ellipse_23" data-name="Ellipse 23" class="cls-2" cx="72.33" cy="118.17" r="17.16"/><path id="Path_34" data-name="Path 34" class="cls-2" d="M331.81,431c.39-32.76,51.08-38.6,51.86,2H331.81Z" transform="translate(-285.93 -268.67)"/><circle id="Ellipse_24" data-name="Ellipse 24" class="cls-3" cx="72.85" cy="192.46" r="17.16"/><path id="Path_35" data-name="Path 35" class="cls-3" d="M332.33,505.31c.39-32.75,51.08-38.6,51.86,1.95H332.33Z" transform="translate(-285.93 -268.67)"/><path id="Path_36" data-name="Path 36" class="cls-4" d="M403.17,329.7l13.31,21.42,62.77-50.18" transform="translate(-285.93 -268.67)"/><path id="Path_37" data-name="Path 37" class="cls-4" d="M403.17,398.44l13.31,21.42,62.77-50.18" transform="translate(-285.93 -268.67)"/><line id="Line_9" data-name="Line 9" class="cls-4" x1="130.55" y1="190.15" x2="187.91" y2="236.65"/><line id="Line_10" data-name="Line 10" class="cls-4" x1="130.55" y1="236.65" x2="187.91" y2="185.89"/><rect id="Rectangle_241" data-name="Rectangle 241" class="cls-4" x="3" y="3" width="233" height="271.62"/></g></svg>