<svg id="Layer_1" data-name="Layer 1" xmlns="http://www.w3.org/2000/svg" viewBox="0 0 578.37 456.76"><defs><style>.cls-1{fill:#ffedcc;}.cls-1,.cls-2,.cls-4{stroke:#fff;stroke-miterlimit:10;}.cls-1,.cls-2{stroke-width:5.89px;}.cls-2{fill:#f8c6c5;}.cls-3{fill:#fff;}.cls-4{fill:#d2eae8;stroke-width:6.22px;}</style></defs><g id="illustation_laptop_ipag_mobile" data-name="illustation laptop ipag mobile"><path id="Rectangle_251" data-name="Rectangle 251" class="cls-1" d="M134.08,103.24H473.31a5.39,5.39,0,0,1,5.39,5.39h0V320.87h-350V108.63a5.39,5.39,0,0,1,5.39-5.39Z" transform="translate(-15.16 -100.3)"/><path id="Path_61" data-name="Path 61" class="cls-1" d="M584.68,418.74h-562l106.51-97.87h349Z" transform="translate(-15.16 -100.3)"/><rect id="Rectangle_252" data-name="Rectangle 252" class="cls-2" x="258.83" y="160.69" width="316.6" height="204.26" rx="3.67"/><circle id="Ellipse_30" data-name="Ellipse 30" class="cls-3" cx="552.31" cy="268.73" r="16.57"/><path id="Rectangle_253" data-name="Rectangle 253" class="cls-4" d="M229,342.1H330.68a3.32,3.32,0,0,1,3.12,3.49V550.46a3.32,3.32,0,0,1-3.12,3.48H229a3.31,3.31,0,0,1-3.12-3.48V345.59A3.31,3.31,0,0,1,229,342.1Z" transform="translate(-15.16 -100.3)"/><circle id="Ellipse_31" data-name="Ellipse 31" class="cls-3" cx="264.66" cy="433.36" r="8.29"/></g></svg>