<svg id="Layer_1" data-name="Layer 1" xmlns="http://www.w3.org/2000/svg" viewBox="0 0 197.36 221.42"><defs><style>.cls-1{fill:#f8c6c5;}.cls-2{fill:#d2eae8;stroke:#fff;stroke-miterlimit:10;stroke-width:4px;}.cls-3{isolation:isolate;}.cls-4{fill:#fff;}</style></defs><g id="payroll_icon" data-name="payroll icon"><rect id="Rectangle_225" data-name="Rectangle 225" class="cls-1" x="226.03" y="304.12" width="107.52" height="181.62" transform="translate(-297.08 -207.36) rotate(-15.01)"/><rect id="Rectangle_226" data-name="Rectangle 226" class="cls-2" x="262.29" y="332.41" width="117.27" height="167.52" transform="translate(-301.18 -195.98) rotate(-15.01)"/><g id="_" data-name=" " class="cls-3"><g class="cls-3"><path class="cls-4" d="M333.94,373.26a63.5,63.5,0,0,0-10.33-1.3,33.73,33.73,0,0,0-10.32,1q-6.66,1.8-9.8,6a10.34,10.34,0,0,0-1.75,9.34,9.56,9.56,0,0,0,4.36,5.92,23.61,23.61,0,0,0,7.92,2.86q4.61.87,9.66,1.35a75.65,75.65,0,0,1,8.47,1.25,31,31,0,0,1,8.09,2.82,20.38,20.38,0,0,1,6.64,5.49,25.21,25.21,0,0,1,4.44,9.41,23.21,23.21,0,0,1-7.13,24,33,33,0,0,1-13.77,7A45.57,45.57,0,0,1,319.69,450a47,47,0,0,1-10.13-.79,72,72,0,0,1-8.73-2.22l2.61-10.06a49.33,49.33,0,0,0,7.32,2,40.3,40.3,0,0,0,8.23.81,30.54,30.54,0,0,0,7.86-1,23.69,23.69,0,0,0,7.45-3.47,15.23,15.23,0,0,0,5.15-6.07,12.26,12.26,0,0,0,.4-8.61,11.44,11.44,0,0,0-4.12-6.41,19.73,19.73,0,0,0-7.17-3.31,60.89,60.89,0,0,0-8.85-1.51,84.76,84.76,0,0,1-8.85-1.08,40.87,40.87,0,0,1-8.54-2.45,21.21,21.21,0,0,1-7.23-4.9,19.13,19.13,0,0,1-4.59-8.63,21.21,21.21,0,0,1,.09-12.29,22.76,22.76,0,0,1,6.61-10A30.63,30.63,0,0,1,309,363.55a48.29,48.29,0,0,1,14.72-1.85,55.14,55.14,0,0,1,12.13,1.8Zm-4.66,82.82-13.47-50.24,1.28-4.41-11.95-44.6,6.78-1.82,12.36,46.1-1,5.44,12.79,47.71Z" transform="translate(-204.35 -293.29)"/></g></g></g></svg>