<svg id="Layer_1" data-name="Layer 1" xmlns="http://www.w3.org/2000/svg" viewBox="0 0 216.72 205.74"><defs><style>.cls-1{fill:#d2eae8;}.cls-2,.cls-4{fill:#f8c6c5;}.cls-2{stroke:#fff;stroke-width:3px;}.cls-3{isolation:isolate;}</style></defs><g id="sales_icon" data-name="sales icon"><g id="Group_17" data-name="Group 17"><rect id="Rectangle_237" data-name="Rectangle 237" class="cls-1" x="4.57" y="93.5" width="180.57" height="112.25"/><rect id="Rectangle_238" data-name="Rectangle 238" class="cls-2" x="1.5" y="113.11" width="186.71" height="24.54"/><g id="_" data-name=" " class="cls-3"><g class="cls-3"><path class="cls-4" d="M481.16,329.57a57.07,57.07,0,0,0-8.75-3.57,30.78,30.78,0,0,0-9.29-1.51q-6.25,0-10,2.92a9.36,9.36,0,0,0-3.72,7.77,8.64,8.64,0,0,0,2.43,6.21,21.18,21.18,0,0,0,6.26,4.38c2.56,1.22,5.27,2.37,8.15,3.45a67.58,67.58,0,0,1,7.13,3.08,28.51,28.51,0,0,1,6.43,4.38,18.59,18.59,0,0,1,4.53,6.37,22.82,22.82,0,0,1,1.68,9.29,21.08,21.08,0,0,1-11.88,19.33,30,30,0,0,1-13.72,2.91,41.28,41.28,0,0,1-9.77-1.13,43,43,0,0,1-8.7-3.08,64.38,64.38,0,0,1-7.12-4l4.64-8.21a46.59,46.59,0,0,0,5.94,3.51,36.34,36.34,0,0,0,7,2.64,27.73,27.73,0,0,0,7.13,1,21.38,21.38,0,0,0,7.34-1.3,13.75,13.75,0,0,0,5.94-4.1,11.2,11.2,0,0,0,2.38-7.46,10.38,10.38,0,0,0-2.11-6.59,17.92,17.92,0,0,0-5.51-4.58,56,56,0,0,0-7.39-3.41,76,76,0,0,1-7.51-3,37,37,0,0,1-6.91-4.16,19.45,19.45,0,0,1-5.19-6,17.46,17.46,0,0,1-2-8.64,19.26,19.26,0,0,1,3-10.75,20.7,20.7,0,0,1,8.15-7.24,27.93,27.93,0,0,1,11.88-2.86A44.2,44.2,0,0,1,475,317a50,50,0,0,1,10.2,4.43Zm-23.55,71.49V353.87l2.16-3.57V308.4h6.38v43.31L464,356.24v44.82Z" transform="translate(-269.3 -308.4)"/></g></g></g></g></svg>