<svg id="Layer_1" data-name="Layer 1" xmlns="http://www.w3.org/2000/svg" viewBox="0 0 212.49 151.92"><defs><style>.cls-1{fill:#d2eae8;}.cls-2{isolation:isolate;}.cls-3{fill:#f8c6c5;}.cls-4{fill:none;stroke:#fff;stroke-miterlimit:10;stroke-width:5.5px;}</style></defs><g id="support_icon" data-name="support icon"><g id="Group_18" data-name="Group 18"><path id="Path_27" data-name="Path 27" class="cls-1" d="M299.18,331.52H511.67v110.3H385.12l-16.05,41.62-12.28-39.5H299.18Z" transform="translate(-299.18 -331.52)"/><g id="_" data-name=" " class="cls-2"><g class="cls-2"><path class="cls-3" d="M334,401.09v-4.72a21.25,21.25,0,0,1,1.12-7.43,18.17,18.17,0,0,1,2.84-5.11,40.08,40.08,0,0,1,3.52-3.83,51.32,51.32,0,0,0,4.27-4.41,8.47,8.47,0,0,0,1.87-5.74,5.44,5.44,0,0,0-1-3.29,7.12,7.12,0,0,0-2.36-2.09,5.55,5.55,0,0,0-2.71-.76,7.43,7.43,0,0,0-4.32,1.2,9.86,9.86,0,0,0-2.85,3.07,26.79,26.79,0,0,0-1.91,3.92l-10.23-4.81a27.26,27.26,0,0,1,1.86-4.09,22.18,22.18,0,0,1,3.79-5,20.33,20.33,0,0,1,6.14-4.18,21.24,21.24,0,0,1,8.85-1.69,22.9,22.9,0,0,1,9.13,1.74,14.29,14.29,0,0,1,6.45,5.34q2.4,3.6,2.4,9.48a19.86,19.86,0,0,1-1.33,7.92,18,18,0,0,1-3.3,5.11c-1.3,1.4-2.61,2.78-3.91,4.14a30.56,30.56,0,0,0-2.89,3.34,14.48,14.48,0,0,0-2.19,4.23,18.5,18.5,0,0,0-.8,5.78v1.87Zm6.23,18.78a7.84,7.84,0,0,1-5.25-1.74,5.7,5.7,0,0,1-2-4.58,6,6,0,0,1,2.09-4.63,7.54,7.54,0,0,1,5.2-1.87,7.22,7.22,0,0,1,5.12,1.87,6.07,6.07,0,0,1,2,4.63,5.82,5.82,0,0,1-1.95,4.58A7.5,7.5,0,0,1,340.19,419.87Z" transform="translate(-299.18 -331.52)"/></g></g><line id="Line_3" data-name="Line 3" class="cls-4" x1="102.76" y1="30.84" x2="189.09" y2="30.84"/><line id="Line_4" data-name="Line 4" class="cls-4" x1="102.76" y1="50.03" x2="189.09" y2="50.03"/><line id="Line_5" data-name="Line 5" class="cls-4" x1="102.76" y1="69.21" x2="189.09" y2="69.21"/></g></g></svg>